<svg width="28" height="24" viewBox="0 0 28 24" fill="none" xmlns="http://www.w3.org/2000/svg">
<path fill-rule="evenodd" clip-rule="evenodd" d="M13.3963 23.8563C13.3967 23.8566 13.397 23.8568 14 22.7147C14.603 23.8568 14.6033 23.8566 14.6038 23.8563C14.2256 24.0479 13.7744 24.0479 13.3963 23.8563ZM13.3963 23.8563L14 22.7147L14.6038 23.8563L14.6078 23.8542L14.6172 23.8494L14.6495 23.8328C14.677 23.8185 14.7162 23.7981 14.7663 23.7716C14.8665 23.7186 15.0106 23.6411 15.1921 23.5405C15.5551 23.339 16.069 23.0438 16.6838 22.6631C17.9105 21.9033 19.5524 20.7947 21.2007 19.4028C24.422 16.6824 28 12.6008 28 7.71442C28 3.14712 24.3499 0 20.5625 0C17.8546 0 15.4824 1.37404 14 3.46283C12.5176 1.37404 10.1454 0 7.4375 0C3.65013 0 0 3.14712 0 7.71442C0 12.6008 3.57803 16.6824 6.79927 19.4028C8.44755 20.7947 10.0894 21.9033 11.3162 22.6631C11.931 23.0438 12.4449 23.339 12.8079 23.5405C12.9894 23.6411 13.1335 23.7186 13.2337 23.7716C13.2838 23.7981 13.323 23.8185 13.3505 23.8328L13.3828 23.8494L13.3922 23.8542L13.3963 23.8563Z" fill="#F13838"/>
</svg>
